HIERARCHY
ROOT joint_0
{
	OFFSET 0.000000 0.000000 0.000000
	CHANNELS 6 Xposition Yposition Zposition Zrotation Yrotation Xrotation 
	JOINT joint_1
	{
		OFFSET 4.520508 -1.939880 86.268921
		CHANNELS 3 Zrotation Yrotation Xrotation
		JOINT joint_2
		{
			OFFSET -4.459717 -0.438538 78.934082
			CHANNELS 3 Zrotation Yrotation Xrotation
			JOINT joint_3
			{
				OFFSET -5.197754 -0.781128 78.796997
				CHANNELS 3 Zrotation Yrotation Xrotation
				JOINT joint_4
				{
					OFFSET 2.952026 -3.710571 109.812988
					CHANNELS 3 Zrotation Yrotation Xrotation
					JOINT joint_5
					{
						OFFSET 24.716797 -5.488037 87.903931
						CHANNELS 3 Zrotation Yrotation Xrotation
						End Site
						{
							OFFSET 0.000000 0.000000 0.000000
						}
					}
				}
				JOINT joint_6
				{
					OFFSET -3.154419 -25.484680 60.934937
					CHANNELS 3 Zrotation Yrotation Xrotation
					JOINT joint_7
					{
						OFFSET -28.997192 -144.472229 -32.671997
						CHANNELS 3 Zrotation Yrotation Xrotation
						JOINT joint_8
						{
							OFFSET 19.867676 -18.614380 -249.897949
							CHANNELS 3 Zrotation Yrotation Xrotation
							JOINT joint_9
							{
								OFFSET 5.281982 -13.816650 -264.993042
								CHANNELS 3 Zrotation Yrotation Xrotation
								End Site
								{
									OFFSET 0.000000 0.000000 0.000000
								}
							}
						}
					}
				}
				JOINT joint_10
				{
					OFFSET 6.494995 21.336792 62.257935
					CHANNELS 3 Zrotation Yrotation Xrotation
					JOINT joint_11
					{
						OFFSET 31.106567 145.200745 -27.007935
						CHANNELS 3 Zrotation Yrotation Xrotation
						JOINT joint_12
						{
							OFFSET 29.119141 24.684326 -248.460083
							CHANNELS 3 Zrotation Yrotation Xrotation
							JOINT joint_13
							{
								OFFSET 21.220093 31.248413 -262.703979
								CHANNELS 3 Zrotation Yrotation Xrotation
								End Site
								{
									OFFSET 0.000000 0.000000 0.000000
								}
							}
						}
					}
				}
			}
		}
	}
	JOINT joint_14
	{
		OFFSET -15.458496 -88.861694 -109.593018
		CHANNELS 3 Zrotation Yrotation Xrotation
		JOINT joint_15
		{
			OFFSET -6.193359 6.837952 -506.710999
			CHANNELS 3 Zrotation Yrotation Xrotation
			JOINT joint_16
			{
				OFFSET -35.096680 13.289795 -435.677025
				CHANNELS 3 Zrotation Yrotation Xrotation
				JOINT joint_17
				{
					OFFSET 158.491211 -33.916565 -71.771002
					CHANNELS 3 Zrotation Yrotation Xrotation
					End Site
					{
						OFFSET 0.000000 0.000000 0.000000
					}
				}
			}
		}
	}
	JOINT joint_18
	{
		OFFSET 23.116943 86.574158 -110.082031
		CHANNELS 3 Zrotation Yrotation Xrotation
		JOINT joint_19
		{
			OFFSET -6.125854 -0.283569 -506.757019
			CHANNELS 3 Zrotation Yrotation Xrotation
			JOINT joint_20
			{
				OFFSET -63.240234 11.589966 -432.537994
				CHANNELS 3 Zrotation Yrotation Xrotation
				JOINT joint_21
				{
					OFFSET 156.074219 -41.487305 -73.077999
					CHANNELS 3 Zrotation Yrotation Xrotation
					End Site
					{
						OFFSET 0.000000 0.000000 0.000000
					}
				}
			}
		}
	}
}
MOTION
Frames: 9
Frame Time: 0.016667
-383.404419 967.906616 1142.741943 -42.493410 1.944203 0.414516 -0.382442 -1.825458 -0.536080 -0.340251 0.367320 0.083663 -0.361892 -0.333605 -0.070173 0.066715 1.756989 0.294523 0.000000 0.000000 0.000000 0.190566 0.105599 -1.337668 0.078115 -0.004227 0.664594 -0.186926 1.499620 -0.646936 0.000000 0.000000 0.000000 0.605346 -0.348727 0.754679 0.765801 0.243121 -0.609299 1.136614 2.028944 2.022727 0.000000 0.000000 0.000000 0.210217 0.561243 -0.484413 0.130834 -1.665508 -0.560052 -0.003125 0.841217 0.178734 0.000000 0.000000 0.000000 0.240903 1.020471 0.404932 0.268683 -1.349861 -0.308278 0.269345 0.367405 0.225650 0.000000 0.000000 0.000000 
-383.429077 967.825562 1142.748047 -42.502550 1.947609 0.418309 -0.378675 -1.833127 -0.542461 -0.336052 0.368418 0.086960 -0.358042 -0.334904 -0.073220 0.068046 1.762026 0.290196 0.000000 0.000000 0.000000 0.185564 0.099858 -1.341301 0.083158 -0.018818 0.693300 -0.181289 1.475103 -0.650889 0.000000 0.000000 0.000000 0.589706 -0.346238 0.766366 0.769630 0.248684 -0.596197 1.141949 2.043394 2.021315 0.000000 0.000000 0.000000 0.212919 0.563133 -0.483842 0.133223 -1.674438 -0.561809 -0.001592 0.843332 0.179888 0.000000 0.000000 0.000000 0.243273 1.022360 0.406549 0.271117 -1.356098 -0.311890 0.271317 0.370979 0.227545 0.000000 0.000000 0.000000 
-383.446838 967.739929 1142.754028 -42.509856 1.950490 0.422383 -0.375444 -1.845202 -0.546146 -0.332687 0.371222 0.088714 -0.354927 -0.338066 -0.074866 0.070164 1.769931 0.283393 0.000000 0.000000 0.000000 0.183417 0.096687 -1.347074 0.088656 -0.030631 0.720883 -0.175081 1.447697 -0.653744 0.000000 0.000000 0.000000 0.573498 -0.343834 0.775933 0.775422 0.253691 -0.580032 1.149971 2.063153 2.023901 0.000000 0.000000 0.000000 0.215477 0.568347 -0.483333 0.135116 -1.687639 -0.563915 -0.000802 0.846466 0.180920 0.000000 0.000000 0.000000 0.245142 1.026051 0.407888 0.273067 -1.364320 -0.315657 0.272887 0.375412 0.229474 0.000000 0.000000 0.000000 
-383.468506 967.663025 1142.756958 -42.513919 1.951564 0.426593 -0.373271 -1.854424 -0.547764 -0.330479 0.373003 0.090546 -0.352917 -0.341292 -0.075909 0.071631 1.775116 0.278207 0.000000 0.000000 0.000000 0.182575 0.092912 -1.352739 0.093463 -0.041593 0.742986 -0.169244 1.422017 -0.656809 0.000000 0.000000 0.000000 0.559318 -0.344555 0.784596 0.782547 0.255209 -0.562619 1.159224 2.086095 2.027337 0.000000 0.000000 0.000000 0.216907 0.574373 -0.482994 0.135852 -1.698875 -0.565969 -0.001007 0.848253 0.181208 0.000000 0.000000 0.000000 0.245941 1.029836 0.408070 0.273928 -1.370145 -0.317491 0.273636 0.378632 0.230688 0.000000 0.000000 0.000000 
-383.497162 967.604065 1142.756958 -42.513904 1.951303 0.430704 -0.373352 -1.861482 -0.543138 -0.331032 0.374848 0.088585 -0.353439 -0.343074 -0.075534 0.072245 1.776964 0.275287 0.000000 0.000000 0.000000 0.187194 0.086274 -1.356620 0.097153 -0.051976 0.756397 -0.163881 1.398502 -0.659922 0.000000 0.000000 0.000000 0.550748 -0.349561 0.790612 0.791595 0.250911 -0.542628 1.170112 2.113024 2.032349 0.000000 0.000000 0.000000 0.217090 0.579572 -0.482784 0.135483 -1.706727 -0.568085 -0.002068 0.849459 0.180980 0.000000 0.000000 0.000000 0.245039 1.031269 0.406312 0.273014 -1.370808 -0.315629 0.273069 0.380111 0.230807 0.000000 0.000000 0.000000 
-383.529053 967.553040 1142.755981 -42.510962 1.949758 0.434619 -0.374367 -1.868289 -0.535959 -0.332673 0.377756 0.086449 -0.354958 -0.344394 -0.073974 0.072437 1.776540 0.273227 0.000000 0.000000 0.000000 0.193403 0.078744 -1.359994 0.100104 -0.061514 0.763629 -0.158905 1.376735 -0.663617 0.000000 0.000000 0.000000 0.544280 -0.357676 0.794219 0.802084 0.242624 -0.520439 1.182295 2.142943 2.038884 0.000000 0.000000 0.000000 0.216508 0.585015 -0.482460 0.134369 -1.712496 -0.570066 -0.003704 0.849931 0.180332 0.000000 0.000000 0.000000 0.243227 1.032251 0.403592 0.271158 -1.369101 -0.311470 0.271867 0.380894 0.230436 0.000000 0.000000 0.000000 
-383.553986 967.498901 1142.755981 -42.505800 1.948059 0.438258 -0.376047 -1.877122 -0.527482 -0.335088 0.380564 0.084349 -0.357255 -0.346776 -0.072387 0.072161 1.777296 0.273500 0.000000 0.000000 0.000000 0.200616 0.072890 -1.365108 0.102110 -0.068970 0.768742 -0.155386 1.361425 -0.667532 0.000000 0.000000 0.000000 0.540829 -0.365219 0.798824 0.811089 0.234723 -0.499684 1.192407 2.168227 2.043480 0.000000 0.000000 0.000000 0.215084 0.589964 -0.482609 0.132477 -1.715761 -0.570476 -0.005735 0.849666 0.179345 0.000000 0.000000 0.000000 0.241013 1.034400 0.400914 0.268908 -1.369017 -0.307119 0.270384 0.382360 0.230112 0.000000 0.000000 0.000000 
-383.566589 967.435730 1142.758057 -42.500054 1.946265 0.441167 -0.377774 -1.890094 -0.517057 -0.337768 0.383822 0.081767 -0.359815 -0.349376 -0.070951 0.071489 1.779141 0.275919 0.000000 0.000000 0.000000 0.207925 0.068878 -1.372473 0.103050 -0.074778 0.773306 -0.153922 1.355408 -0.673878 0.000000 0.000000 0.000000 0.541824 -0.371797 0.806452 0.817360 0.228191 -0.483036 1.199112 2.184833 2.046833 0.000000 0.000000 0.000000 0.213589 0.594214 -0.483137 0.130599 -1.715566 -0.568807 -0.007300 0.848012 0.178275 0.000000 0.000000 0.000000 0.238952 1.039427 0.398740 0.266841 -1.373076 -0.302555 0.269264 0.384940 0.230258 0.000000 0.000000 0.000000 
-383.572144 967.370850 1142.761963 -42.491859 1.944050 0.443322 -0.379898 -1.904597 -0.503698 -0.341107 0.386183 0.078064 -0.362984 -0.351978 -0.069418 0.070627 1.782542 0.279707 0.000000 0.000000 0.000000 0.216183 0.066570 -1.381062 0.103268 -0.078353 0.775340 -0.153649 1.354671 -0.681103 0.000000 0.000000 0.000000 0.545174 -0.378125 0.814395 0.822119 0.221621 -0.467242 1.203635 2.196619 2.048205 0.000000 0.000000 0.000000 0.211308 0.598352 -0.483767 0.127970 -1.713127 -0.565442 -0.009229 0.845907 0.176942 0.000000 0.000000 0.000000 0.236146 1.045824 0.396949 0.264035 -1.378866 -0.297461 0.267599 0.388023 0.230277 0.000000 0.000000 0.000000 
